Coordinates
version=1
nRows=19
nColumns=24
inDegrees=yes

Units are S.I. units (second, meters, Newtons, ...)
Angles are in degrees.

endheader
time	pelvis_tilt	pelvis_list	pelvis_rotation	pelvis_tx	pelvis_ty	pelvis_tz	hip_flexion_r	hip_adduction_r	hip_rotation_r	knee_angle_r	ankle_angle_r	subtalar_angle_r	mtp_angle_r	hip_flexion_l	hip_adduction_l	hip_rotation_l	knee_angle_l	ankle_angle_l	subtalar_angle_l	mtp_angle_l	lumbar_extension	lumbar_bending	lumbar_rotation
      1.23316667	     -0.61067860	      4.24177106	     -4.19370874	      0.26279734	      1.03072406	      0.27483627	     18.29538652	     -5.37751903	     -4.48482491	    -67.59569786	      2.11546880	     -6.22197107	      8.78177330	      7.99595237	      8.49539440	      1.02516041	    -10.00010393	      5.69695638	    -11.16498401	     -1.97580991	     -4.74888431	     -7.68190665	      3.43167430
      1.23733333	     -0.71308655	      4.00541524	     -4.24884611	      0.26782928	      1.03135311	      0.27468391	     18.91799569	     -5.02263549	     -4.34582883	    -67.29472746	      2.67209169	     -6.25426728	      8.69661315	      7.69113893	      8.27559648	      1.13304503	     -9.83728970	      5.77282970	    -11.28345119	     -1.99614024	     -4.75524913	     -7.36960392	      3.41126603
      1.24150000	     -0.78976926	      3.80813716	     -4.31763881	      0.27288832	      1.03197462	      0.27455355	     19.50766073	     -4.71234475	     -4.19632524	    -66.95844228	      3.24900398	     -6.27386913	      8.22817881	      7.32268727	      8.10782698	      1.32933995	     -9.58861530	      5.75706948	    -11.59859824	     -2.10926955	     -4.75907259	     -7.12504201	      3.33923248
      1.24566667	     -0.86396498	      3.56935583	     -4.38678286	      0.27795590	      1.03260606	      0.27446089	     20.06172867	     -4.34316932	     -4.05470040	    -66.52922828	      3.69163171	     -6.40255346	      8.19524653	      6.98097129	      7.87680400	      1.35614999	     -9.41158164	      5.87413369	    -11.60128225	     -2.11798058	     -4.75432968	     -6.83215337	      3.32600474
      1.24983333	     -0.93895263	      3.32943277	     -4.43952625	      0.28300289	      1.03321992	      0.27434151	     20.59707025	     -3.97909802	     -3.93222356	    -66.04092419	      4.12262941	     -6.48388266	      8.15779962	      6.64653798	      7.64791348	      1.40763791	     -9.24683566	      5.98511918	    -11.62630660	     -2.12857999	     -4.76995798	     -6.52814400	      3.30683692
      1.25400000	     -1.01584550	      3.07021149	     -4.46396010	      0.28802228	      1.03381243	      0.27418573	     21.10811537	     -3.60271961	     -3.84246051	    -65.48679163	      4.51781037	     -6.52500111	      8.08158415	      6.32266149	      7.40286851	      1.50653565	     -9.10172199	      6.08274656	    -11.68848235	     -2.15085411	     -4.81088231	     -6.20226354	      3.27160527
      1.25816667	     -1.05480629	      2.84566267	     -4.49532110	      0.29306818	      1.03440839	      0.27403832	     21.56666038	     -3.26982475	     -3.75104007	    -64.88994825	      4.91910864	     -6.60285126	      7.61928941	      5.92118589	      7.20856102	      1.71380958	     -8.87057061	      6.08253367	    -11.96920790	     -2.29344527	     -4.88533408	     -5.91260508	      3.11818434
      1.26233333	     -1.14098231	      2.62072644	     -4.53403523	      0.29812254	      1.03489792	      0.27392521	     22.06111885	     -2.92645971	     -3.64992127	    -64.23919526	      5.28128263	     -6.65958485	      7.58284538	      5.60585425	      6.99345123	      1.74437685	     -8.71317202	      6.19505252	    -11.97788486	     -2.30571234	     -4.86205066	     -5.63215955	      3.11885867
      1.26650000	     -1.20875717	      2.38279192	     -4.54830030	      0.30316528	      1.03539667	      0.27377888	     22.50667167	     -2.57984507	     -3.57977057	    -63.51852739	      5.60727460	     -6.72403146	      7.53976065	      5.27371801	      6.77038857	      1.81600244	     -8.56405098	      6.30556469	    -12.01087269	     -2.32039372	     -4.88319949	     -5.32963786	      3.09873180
      1.27066667	     -1.21847182	      2.14162360	     -4.54064738	      0.30818280	      1.03596558	      0.27361518	     22.86074175	     -2.24067358	     -3.53146083	    -62.72299120	      5.85336747	     -6.86725428	      7.25943226	      4.86309679	      6.55677693	      2.00474390	     -8.37803044	      6.33375547	    -12.21840705	     -2.42255570	     -5.01622643	     -5.03788018	      2.95328977
      1.27483333	     -1.27325947	      1.90335270	     -4.52151949	      0.31323065	      1.03641868	      0.27343835	     23.24313645	     -1.90947226	     -3.50057440	    -61.87608885	      6.09215908	     -6.97592674	      7.02917739	      4.51488813	      6.33922006	      2.14301818	     -8.22351771	      6.42963269	    -12.32153386	     -2.50961525	     -5.04602310	     -4.74743374	      2.88979364
      1.27900000	     -1.34875875	      1.70949393	     -4.52236827	      0.31826473	      1.03676071	      0.27328833	     23.65230088	     -1.62178067	     -3.44102394	    -61.01390792	      6.37621013	     -7.03182397	      6.99256664	      4.19969852	      6.16307661	      2.20446608	     -8.07456115	      6.52565569	    -12.34824599	     -2.52412765	     -5.04610717	     -4.48546799	      2.86581391
      1.28316667	     -1.36980621	      1.47899565	     -4.47091893	      0.32328585	      1.03719847	      0.27308858	     23.95166224	     -1.31306595	     -3.43906755	    -60.03935727	      6.48082679	     -7.24406015	      6.82507667	      3.81920337	      5.95901819	      2.40373406	     -7.92021594	      6.59086542	    -12.50235220	     -2.59091765	     -5.15452240	     -4.20715206	      2.72443380
      1.28733333	     -1.43796712	      1.26479504	     -4.41424288	      0.32830856	      1.03750645	      0.27286787	     24.29175508	     -1.02960836	     -3.44645600	    -59.03377829	      6.65766037	     -7.36125070	      6.74116131	      3.51518545	      5.76556482	      2.52478894	     -7.81320609	      6.67768802	    -12.58752057	     -2.62497022	     -5.18392343	     -3.92893547	      2.66473105
      1.29150000	     -1.45352077	      1.05614492	     -4.36137761	      0.33334613	      1.03785956	      0.27267917	     24.54892810	     -0.74783662	     -3.44229177	    -57.95725870	      6.73911809	     -7.65331325	      6.54586790	      3.12449981	      5.58389758	      2.71340601	     -7.64078444	      6.72077184	    -12.76030188	     -2.70772506	     -5.28653553	     -3.67136730	      2.49396860
      1.29566667	     -1.49194421	      0.86814799	     -4.28165093	      0.33839023	      1.03812776	      0.27244990	     24.81271001	     -0.50813220	     -3.47302458	    -56.83510435	      6.79290071	     -7.86644408	      6.39456433	      2.77702412	      5.42174633	      2.89108807	     -7.50283621	      6.80942637	    -12.86488796	     -2.77090120	     -5.32822360	     -3.43575616	      2.38960703
      1.29983333	     -1.53996020	      0.68156714	     -4.19053239	      0.34343019	      1.03834396	      0.27221255	     25.06370426	     -0.27175608	     -3.50905503	    -55.65366284	      6.81663605	     -8.15248009	      6.23990160	      2.44862965	      5.25900057	      3.06499111	     -7.38067608	      6.88444422	    -12.97739181	     -2.83581862	     -5.38207454	     -3.19649015	      2.25715079
      1.30400000	     -1.58373517	      0.49303242	     -4.08529624	      0.34849093	      1.03853406	      0.27195016	     25.28228238	     -0.04473847	     -3.56760519	    -54.40837775	      6.80297050	     -8.46155372	      6.08432399	      2.11628947	      5.09444767	      3.24376212	     -7.25974169	      6.96548088	    -13.08277496	     -2.90068221	     -5.42522163	     -2.95493862	      2.11603921
      1.30816667	     -1.61848794	      0.32170999	     -3.97271067	      0.35354218	      1.03869911	      0.27169953	     25.47156344	      0.16327290	     -3.62186500	    -53.11111376	      6.76129319	     -8.81251299	      5.90462542	      1.77746174	      4.94711193	      3.43341464	     -7.13895093	      7.02637446	    -13.19873811	     -2.97666022	     -5.50075223	     -2.73660142	      1.95859364
